<svg width="24" height="30" viewBox="0 0 24 30" fill="none" xmlns="http://www.w3.org/2000/svg">
<path d="M8.09359 29.0613C3.79164 29.0365 0.233154 20.2548 0.233154 15.7825C0.233154 8.47692 5.71355 6.87754 7.82566 6.87754C8.77749 6.87754 9.79386 7.25133 10.6903 7.5821C11.3172 7.81283 11.9655 8.05102 12.3261 8.05102C12.5419 8.05102 13.0505 7.8484 13.4996 7.67062C14.4572 7.28938 15.6489 6.81555 17.0366 6.81555C17.039 6.81555 17.0424 6.81555 17.0448 6.81555C18.081 6.81555 21.2227 7.04295 23.1115 9.87949L23.554 10.5444L22.9172 11.0249C22.0076 11.7112 20.3478 12.9633 20.3478 15.4434C20.3478 18.3809 22.2275 19.5105 23.1306 20.0539C23.5292 20.2937 23.9418 20.541 23.9418 21.0818C23.9418 21.4349 21.1235 29.0175 17.0307 29.0175C16.0293 29.0175 15.3214 28.7165 14.697 28.451C14.0652 28.1822 13.5202 27.9507 12.6196 27.9507C12.1631 27.9507 11.5859 28.1666 10.9747 28.3956C10.1396 28.7073 9.1943 29.0613 8.12171 29.0613H8.09359Z" fill="#FBFBFB"/>
<path d="M17.4697 0.156128C17.5762 3.99938 14.8277 6.66565 12.0824 6.49843C11.63 3.43138 14.8274 0.156128 17.4697 0.156128Z" fill="#FBFBFB"/>
</svg>
