<svg width="95" height="35" viewBox="0 0 95 35" fill="none" xmlns="http://www.w3.org/2000/svg">
<path d="M3.1275 6.25949C3.09614 6.78092 3.03733 7.20237 2.95108 7.52386C2.86875 7.84534 2.72957 8.12369 2.53355 8.35892V8.42949H6.65008V1.84892H3.4039L3.1275 6.25949ZM1.57498 9.38218V11.0582H0.592896V8.42949H1.22214C1.51617 8.27267 1.7318 8.01588 1.86902 7.65911C2.01016 7.29843 2.09837 6.82405 2.13365 6.23597L2.4571 0.89624H7.70861V8.42949H8.76715V11.0582H7.78506V9.38218H1.57498Z" fill="#FBFBFB"/>
<path d="M11.4076 7.96491C11.733 8.37657 12.1956 8.58239 12.7955 8.58239C13.3953 8.58239 13.8579 8.37657 14.1833 7.96491C14.5087 7.54934 14.6714 6.96518 14.6714 6.21245C14.6714 5.45971 14.5087 4.87751 14.1833 4.46586C13.8579 4.05029 13.3953 3.8425 12.7955 3.8425C12.1956 3.8425 11.733 4.05029 11.4076 4.46586C11.0822 4.87751 10.9195 5.45971 10.9195 6.21245C10.9195 6.96518 11.0822 7.54934 11.4076 7.96491ZM14.9302 8.61768C14.4088 9.20183 13.6972 9.49391 12.7955 9.49391C11.8938 9.49391 11.1802 9.20183 10.6549 8.61768C10.1334 8.0296 9.87273 7.22786 9.87273 6.21245C9.87273 5.19312 10.1334 4.39137 10.6549 3.80722C11.1763 3.22306 11.8898 2.93098 12.7955 2.93098C13.7011 2.93098 14.4146 3.22306 14.9361 3.80722C15.4575 4.39137 15.7182 5.19312 15.7182 6.21245C15.7182 7.22786 15.4555 8.0296 14.9302 8.61768Z" fill="#FBFBFB"/>
<path d="M22.6693 4.98337H21.646C21.5598 4.65013 21.3735 4.37765 21.0873 4.16594C20.8051 3.95031 20.4463 3.8425 20.0112 3.8425C19.4427 3.8425 18.9899 4.05421 18.6527 4.47762C18.3195 4.90104 18.1528 5.47147 18.1528 6.18892C18.1528 6.91814 18.3214 7.50033 18.6586 7.93551C18.9958 8.36677 19.4466 8.58239 20.0112 8.58239C20.4385 8.58239 20.7933 8.48634 21.0756 8.29424C21.3618 8.10213 21.5519 7.8277 21.646 7.47093H22.6693C22.5752 8.07077 22.2949 8.55887 21.8283 8.93524C21.3618 9.30769 20.758 9.49391 20.017 9.49391C19.1271 9.49391 18.4194 9.19595 17.8941 8.60004C17.3687 8.0002 17.1061 7.19649 17.1061 6.18892C17.1061 5.20096 17.3687 4.41097 17.8941 3.81898C18.4194 3.22698 19.1251 2.93098 20.0112 2.93098C20.7521 2.93098 21.3559 3.12505 21.8224 3.51318C22.2929 3.90131 22.5752 4.39137 22.6693 4.98337Z" fill="#FBFBFB"/>
<path d="M28.5735 3.04272V3.88955H26.5153V9.38218H25.5038V3.88955H23.4455V3.04272H28.5735Z" fill="#FBFBFB"/>
<path d="M30.5965 11.6816C30.4358 11.6816 30.2849 11.6698 30.1437 11.6463V10.7818C30.2456 10.8014 30.3868 10.8112 30.5671 10.8112C30.8572 10.8112 31.0905 10.7308 31.2669 10.5701C31.4434 10.4133 31.5982 10.1447 31.7315 9.76443L31.8491 9.38806L29.5027 3.04272H30.5965L32.3372 8.25895H32.4313L34.1662 3.04272H35.2423L32.7665 9.77031C32.496 10.5034 32.2059 11.0053 31.8962 11.2758C31.5904 11.5463 31.1572 11.6816 30.5965 11.6816Z" fill="#FBFBFB"/>
<path d="M40.882 9.38218V3.88955H37.7181V9.38218H36.7066V3.04272H41.8935V9.38218H40.882Z" fill="#FBFBFB"/>
<path d="M43.9047 9.38218V3.04272H44.9162V5.66554H48.1388V3.04272H49.1503V9.38218H48.1388V6.51237H44.9162V9.38218H43.9047Z" fill="#FBFBFB"/>
<path d="M52.3847 7.96491C52.7101 8.37657 53.1728 8.58239 53.7726 8.58239C54.3724 8.58239 54.8351 8.37657 55.1605 7.96491C55.4859 7.54934 55.6486 6.96518 55.6486 6.21245C55.6486 5.45971 55.4859 4.87751 55.1605 4.46586C54.8351 4.05029 54.3724 3.8425 53.7726 3.8425C53.1728 3.8425 52.7101 4.05029 52.3847 4.46586C52.0593 4.87751 51.8966 5.45971 51.8966 6.21245C51.8966 6.96518 52.0593 7.54934 52.3847 7.96491ZM55.9073 8.61768C55.3859 9.20183 54.6743 9.49391 53.7726 9.49391C52.8709 9.49391 52.1574 9.20183 51.632 8.61768C51.1106 8.0296 50.8499 7.22786 50.8499 6.21245C50.8499 5.19312 51.1106 4.39137 51.632 3.80722C52.1534 3.22306 52.867 2.93098 53.7726 2.93098C54.6782 2.93098 55.3918 3.22306 55.9132 3.80722C56.4346 4.39137 56.6953 5.19312 56.6953 6.21245C56.6953 7.22786 56.4327 8.0296 55.9073 8.61768Z" fill="#FBFBFB"/>
<path d="M64.3815 3.88955H62.8055V5.6773H64.2168C65.0127 5.6773 65.4106 5.37542 65.4106 4.77166C65.4106 4.49723 65.3244 4.2816 65.1519 4.12478C64.9833 3.96796 64.7265 3.88955 64.3815 3.88955ZM64.305 6.52413H62.8055V8.53535H64.4991C64.8872 8.53535 65.1813 8.45106 65.3812 8.28247C65.5851 8.10997 65.687 7.86298 65.687 7.5415C65.687 7.19257 65.5714 6.93578 65.3401 6.77112C65.1127 6.60646 64.7677 6.52413 64.305 6.52413ZM61.794 9.38218V3.04272H64.5109C65.1029 3.04272 65.5674 3.18974 65.9046 3.48377C66.2418 3.77389 66.4104 4.1679 66.4104 4.66581C66.4104 4.97945 66.3104 5.26564 66.1104 5.5244C65.9144 5.77923 65.6694 5.93801 65.3753 6.00074V6.09483C65.7752 6.14972 66.0948 6.31242 66.3339 6.58293C66.5731 6.84953 66.6926 7.17493 66.6926 7.55914C66.6926 8.11585 66.5005 8.55887 66.1163 8.88819C65.7321 9.21752 65.2009 9.38218 64.5226 9.38218H61.794Z" fill="#FBFBFB"/>
<path d="M11.5046 31.061L10.185 27.232H4.68649L3.35685 31.061H1.05748L6.26606 16.6349H8.67541L13.884 31.061H11.5046ZM7.35577 19.2542L5.25634 25.3526H9.61516L7.52572 19.2542H7.35577Z" fill="#FBFBFB"/>
<path d="M21.3924 19.994C22.7787 19.994 23.8784 20.5005 24.6915 21.5136C25.5046 22.52 25.9111 23.8863 25.9111 25.6125C25.9111 27.3387 25.5046 28.7083 24.6915 29.7214C23.885 30.7344 22.792 31.241 21.4124 31.241C20.6392 31.241 19.9594 31.081 19.3729 30.7611C18.7864 30.4345 18.3499 29.9846 18.0633 29.4115H17.8933V34.5901H15.7439V20.174H17.8133V21.9735H17.9733C18.2999 21.3536 18.7664 20.8704 19.3729 20.5239C19.9794 20.1706 20.6526 19.994 21.3924 19.994ZM20.7825 29.3115C21.6956 29.3115 22.4088 28.9849 22.922 28.3317C23.4418 27.6719 23.7017 26.7655 23.7017 25.6125C23.7017 24.4595 23.4418 23.5564 22.922 22.9032C22.4088 22.2501 21.6989 21.9235 20.7925 21.9235C19.8861 21.9235 19.1696 22.2567 18.6431 22.9232C18.1166 23.583 17.8533 24.4828 17.8533 25.6225C17.8533 26.7555 18.1166 27.6553 18.6431 28.3218C19.1696 28.9816 19.8828 29.3115 20.7825 29.3115Z" fill="#FBFBFB"/>
<path d="M33.7394 19.994C35.1257 19.994 36.2254 20.5005 37.0385 21.5136C37.8516 22.52 38.2582 23.8863 38.2582 25.6125C38.2582 27.3387 37.8516 28.7083 37.0385 29.7214C36.2321 30.7344 35.139 31.241 33.7594 31.241C32.9863 31.241 32.3065 31.081 31.72 30.7611C31.1335 30.4345 30.6969 29.9846 30.4103 29.4115H30.2404V34.5901H28.091V20.174H30.1604V21.9735H30.3203C30.6469 21.3536 31.1135 20.8704 31.72 20.5239C32.3265 20.1706 32.9996 19.994 33.7394 19.994ZM33.1296 29.3115C34.0427 29.3115 34.7558 28.9849 35.269 28.3317C35.7889 27.6719 36.0488 26.7655 36.0488 25.6125C36.0488 24.4595 35.7889 23.5564 35.269 22.9032C34.7558 22.2501 34.046 21.9235 33.1396 21.9235C32.2332 21.9235 31.5167 22.2567 30.9902 22.9232C30.4636 23.583 30.2004 24.4828 30.2004 25.6225C30.2004 26.7555 30.4636 27.6553 30.9902 28.3218C31.5167 28.9816 32.2298 29.3115 33.1296 29.3115Z" fill="#FBFBFB"/>
<path d="M45.1971 27.1821H47.4165C47.5098 27.8685 47.8664 28.4151 48.4862 28.8216C49.1127 29.2215 49.9092 29.4215 50.8756 29.4215C51.7753 29.4215 52.5185 29.2148 53.105 28.8016C53.6981 28.3817 53.9947 27.8519 53.9947 27.2121C53.9947 26.6655 53.7748 26.219 53.3349 25.8724C52.9017 25.5192 52.2052 25.2293 51.2455 25.0026L49.386 24.5528C48.0797 24.2462 47.1199 23.7697 46.5068 23.1232C45.8936 22.4767 45.587 21.6236 45.587 20.5639C45.587 19.2775 46.0669 18.2445 47.0266 17.4647C47.993 16.6782 49.2627 16.285 50.8356 16.285C52.3019 16.285 53.5182 16.6716 54.4846 17.4447C55.451 18.2178 55.9675 19.2109 56.0342 20.4239H53.8548C53.7481 19.7574 53.4216 19.2309 52.875 18.8443C52.3352 18.4578 51.6454 18.2645 50.8056 18.2645C49.9192 18.2645 49.206 18.4611 48.6662 18.8543C48.1263 19.2475 47.8564 19.7674 47.8564 20.4139C47.8564 20.9271 48.0597 21.3436 48.4662 21.6636C48.8795 21.9835 49.5559 22.2534 50.4957 22.4733L52.0852 22.8632C53.5648 23.2098 54.6312 23.703 55.2844 24.3428C55.9375 24.976 56.2641 25.8358 56.2641 26.9221C56.2641 28.3018 55.7643 29.3948 54.7645 30.2012C53.7648 31.0077 52.4118 31.4109 50.7056 31.4109C49.1061 31.4109 47.8064 31.0277 46.8067 30.2612C45.8136 29.4948 45.2771 28.4684 45.1971 27.1821Z" fill="#FBFBFB"/>
<path d="M59.3137 17.5347H61.4631V20.2239H63.9024V22.0335H61.4631V27.6319C61.4631 28.1985 61.5864 28.615 61.833 28.8816C62.0796 29.1415 62.4695 29.2715 63.0027 29.2715C63.2026 29.2715 63.4692 29.2548 63.8025 29.2215V31.011C63.3893 31.0843 63.006 31.121 62.6528 31.121C61.4598 31.121 60.6033 30.8944 60.0835 30.4412C59.5703 29.988 59.3137 29.2348 59.3137 28.1818V22.0335H57.5242V20.2239H59.3137V17.5347Z" fill="#FBFBFB"/>
<path d="M70.4211 29.3615C71.3475 29.3615 72.064 29.0349 72.5705 28.3817C73.0837 27.7219 73.3403 26.7988 73.3403 25.6125C73.3403 24.4328 73.0837 23.5164 72.5705 22.8632C72.064 22.2034 71.3475 21.8735 70.4211 21.8735C69.488 21.8735 68.7682 22.2001 68.2617 22.8532C67.7551 23.5064 67.5019 24.4261 67.5019 25.6125C67.5019 26.8055 67.7551 27.7286 68.2617 28.3817C68.7682 29.0349 69.488 29.3615 70.4211 29.3615ZM70.4211 31.271C68.8215 31.271 67.5652 30.7678 66.6521 29.7614C65.739 28.755 65.2825 27.372 65.2825 25.6125C65.2825 23.8596 65.739 22.48 66.6521 21.4736C67.5719 20.4672 68.8282 19.964 70.4211 19.964C72.0073 19.964 73.257 20.4672 74.1701 21.4736C75.0898 22.48 75.5497 23.8596 75.5497 25.6125C75.5497 27.372 75.0931 28.755 74.1801 29.7614C73.267 30.7678 72.014 31.271 70.4211 31.271Z" fill="#FBFBFB"/>
<path d="M77.7295 31.061V20.174H79.7989V21.8435H79.9589C80.1122 21.3037 80.4621 20.8604 81.0086 20.5139C81.5551 20.1673 82.1816 19.994 82.8881 19.994C83.288 19.994 83.6046 20.024 83.8378 20.084V22.2034C83.5912 22.1168 83.1947 22.0734 82.6482 22.0734C81.835 22.0734 81.1686 22.31 80.6487 22.7833C80.1355 23.2565 79.8789 23.873 79.8789 24.6328V31.061H77.7295Z" fill="#FBFBFB"/>
<path d="M91.5961 22.5633C91.1163 22.0501 90.4798 21.7935 89.6867 21.7935C88.8935 21.7935 88.2404 22.0501 87.7272 22.5633C87.214 23.0765 86.9274 23.7597 86.8674 24.6128H92.3659C92.3393 23.753 92.0827 23.0698 91.5961 22.5633ZM92.3559 28.1218H94.4254C94.1788 29.1015 93.6389 29.8713 92.8058 30.4312C91.9794 30.991 90.9463 31.271 89.7067 31.271C88.1471 31.271 86.9174 30.7711 86.0177 29.7714C85.1246 28.765 84.678 27.392 84.678 25.6525C84.678 23.9129 85.1312 22.53 86.0376 21.5036C86.9441 20.4772 88.1637 19.964 89.6967 19.964C91.2096 19.964 92.3959 20.4505 93.2557 21.4236C94.1221 22.3967 94.5553 23.7397 94.5553 25.4525V26.2023H86.8674V26.3223C86.9007 27.282 87.1773 28.0418 87.6972 28.6017C88.2171 29.1615 88.9069 29.4414 89.7666 29.4414C91.0796 29.4414 91.9427 29.0016 92.3559 28.1218Z" fill="#FBFBFB"/>
</svg>
