<svg width="30" height="30" viewBox="0 0 30 30" fill="none" xmlns="http://www.w3.org/2000/svg">
<g clip-path="url(#clip0_2_571)">
<path d="M17.4927 14.6114L2.97727 28.5888C2.29753 28.1243 1.89396 27.3516 1.90109 26.5283V2.69453C1.89396 1.87127 2.29753 1.09857 2.97727 0.634033L17.4927 14.6114Z" fill="#5BC8F3"/>
<path d="M22.5717 9.72886L17.4926 14.6111L2.97717 0.633709C3.03186 0.591322 3.08883 0.551887 3.14777 0.51559C3.91493 0.0506202 4.87317 0.0356093 5.65454 0.476217L22.5717 9.72886Z" fill="#74C168"/>
<path d="M28.7266 14.6109C28.7361 15.5403 28.231 16.3987 27.4142 16.8421L22.5713 19.4932L17.4922 14.6109L22.5713 9.72864L27.4142 12.3797C28.231 12.8231 28.7361 13.6815 28.7266 14.6109Z" fill="#FFDF00"/>
<path d="M22.5717 19.4931L5.65454 28.7457C4.87144 29.1795 3.91683 29.1645 3.14777 28.7063C3.08883 28.67 3.03186 28.6306 2.97717 28.5882L17.4927 14.6108L22.5717 19.4931Z" fill="#E9404A"/>
</g>
<defs>
<clipPath id="clip0_2_571">
<rect width="28.9051" height="28.9051" fill="white" transform="translate(0.861328 0.155884)"/>
</clipPath>
</defs>
</svg>
