<svg width="108" height="35" viewBox="0 0 108 35" fill="none" xmlns="http://www.w3.org/2000/svg">
<path d="M0.861572 10.2916H1.76999V8.38235H7.32827V10.2762H8.23669V7.53552H7.32827V0.499136H2.64761L2.47825 3.82487C2.37047 6.08821 1.89316 7.05821 1.36967 7.53552H0.861572V10.2916ZM2.50904 7.53552C2.98634 6.78107 3.29428 5.54932 3.38666 3.82487L3.50984 1.34597H6.41985V7.53552H2.50904Z" fill="#FBFBFB"/>
<path d="M16.3306 4.44074C16.3306 1.94644 14.8679 0.391357 12.8509 0.391357C10.834 0.391357 9.37125 1.94644 9.37125 4.44074C9.37125 6.93504 10.834 8.49013 12.8509 8.49013C14.8679 8.49013 16.3306 6.93504 16.3306 4.44074ZM15.4068 4.44074C15.4068 6.48853 14.2829 7.59711 12.8509 7.59711C11.419 7.59711 10.2951 6.48853 10.2951 4.44074C10.2951 2.39295 11.419 1.28438 12.8509 1.28438C14.2829 1.28438 15.4068 2.39295 15.4068 4.44074Z" fill="#FBFBFB"/>
<path d="M24.2793 2.96264C23.9867 1.34597 22.6934 0.391357 21.1075 0.391357C19.0905 0.391357 17.6278 1.94644 17.6278 4.44074C17.6278 6.93504 19.0905 8.49013 21.1075 8.49013C22.6934 8.49013 23.9867 7.53552 24.2793 5.91884H23.3247C23.0937 7.01202 22.1545 7.59711 21.1075 7.59711C19.6756 7.59711 18.5516 6.48853 18.5516 4.44074C18.5516 2.39295 19.6756 1.28438 21.1075 1.28438C22.1545 1.28438 23.0937 1.86946 23.3247 2.96264H24.2793Z" fill="#FBFBFB"/>
<path d="M25.3908 1.34597H27.8697V8.38235H28.8243V1.34597H31.3032V0.499136H25.3908V1.34597Z" fill="#FBFBFB"/>
<path d="M33.1922 8.49013H33.7003C34.9012 8.49013 35.2554 7.84346 35.5787 7.10441L38.3039 0.499136H37.2877L35.3015 5.39535L33.1306 0.499136H32.099L34.8242 6.53472L34.7011 6.82726C34.5317 7.21218 34.2546 7.59711 33.6849 7.59711H33.1922V8.49013Z" fill="#FBFBFB"/>
<path d="M45.4375 0.499136H39.5559V8.38235H40.5105V1.34597H44.4829V8.38235H45.4375V0.499136Z" fill="#FBFBFB"/>
<path d="M47.3631 8.38235H48.3177V4.85646H52.521V8.38235H53.4757V0.499136H52.521V4.00963H48.3177V0.499136H47.3631V8.38235Z" fill="#FBFBFB"/>
<path d="M62.0383 4.44074C62.0383 1.94644 60.5756 0.391357 58.5586 0.391357C56.5416 0.391357 55.0789 1.94644 55.0789 4.44074C55.0789 6.93504 56.5416 8.49013 58.5586 8.49013C60.5756 8.49013 62.0383 6.93504 62.0383 4.44074ZM61.1144 4.44074C61.1144 6.48853 59.9905 7.59711 58.5586 7.59711C57.1266 7.59711 56.0027 6.48853 56.0027 4.44074C56.0027 2.39295 57.1266 1.28438 58.5586 1.28438C59.9905 1.28438 61.1144 2.39295 61.1144 4.44074Z" fill="#FBFBFB"/>
<path d="M66.692 8.38235H69.5404C71.4034 8.38235 72.1733 7.47393 72.1733 6.28837C72.1733 5.04122 71.311 4.36376 70.5874 4.31757V4.24058C71.2648 4.05582 71.8653 3.60931 71.8653 2.59311C71.8653 1.43835 71.0955 0.499136 69.448 0.499136H66.692V8.38235ZM67.6466 7.53552V4.79487H69.5866C70.6182 4.79487 71.2648 5.48773 71.2648 6.28837C71.2648 6.98123 70.7875 7.53552 69.5404 7.53552H67.6466ZM67.6466 3.96344V1.34597H69.448C70.495 1.34597 70.9569 1.90025 70.9569 2.59311C70.9569 3.42455 70.2794 3.96344 69.4172 3.96344H67.6466Z" fill="#FBFBFB"/>
<path d="M12.2976 19.8748H14.6024C14.1008 16.9738 11.6214 14.9671 8.40776 14.9671C4.55426 14.9671 1.74048 17.8681 1.74048 22.6232C1.74048 27.3346 4.47428 30.2648 8.50955 30.2648C12.1231 30.2648 14.7042 27.8945 14.7042 24.1355V22.4414H8.85128V24.2955H12.5303C12.4794 26.6948 10.8944 28.2144 8.50955 28.2144C5.88481 28.2144 3.9726 26.2295 3.9726 22.6087C3.9726 19.0024 5.89935 17.0174 8.4223 17.0174C10.4 17.0174 11.7378 18.1081 12.2976 19.8748Z" fill="#FBFBFB"/>
<path d="M21.1645 30.2866C24.3128 30.2866 26.3704 27.9817 26.3704 24.5281C26.3704 21.0527 24.3128 18.7479 21.1645 18.7479C18.0163 18.7479 15.9587 21.0527 15.9587 24.5281C15.9587 27.9817 18.0163 30.2866 21.1645 30.2866ZM21.1718 28.4616C19.1142 28.4616 18.1544 26.6657 18.1544 24.5209C18.1544 22.3833 19.1142 20.5656 21.1718 20.5656C23.2149 20.5656 24.1746 22.3833 24.1746 24.5209C24.1746 26.6657 23.2149 28.4616 21.1718 28.4616Z" fill="#FBFBFB"/>
<path d="M32.5798 30.2866C35.7281 30.2866 37.7857 27.9817 37.7857 24.5281C37.7857 21.0527 35.7281 18.7479 32.5798 18.7479C29.4316 18.7479 27.374 21.0527 27.374 24.5281C27.374 27.9817 29.4316 30.2866 32.5798 30.2866ZM32.5871 28.4616C30.5295 28.4616 29.5697 26.6657 29.5697 24.5209C29.5697 22.3833 30.5295 20.5656 32.5871 20.5656C34.6302 20.5656 35.5899 22.3833 35.5899 24.5209C35.5899 26.6657 34.6302 28.4616 32.5871 28.4616Z" fill="#FBFBFB"/>
<path d="M43.9733 34.46C46.8162 34.46 49.012 33.1585 49.012 30.3084V18.8933H46.8816V20.7037H46.7217C46.3363 20.013 45.5656 18.7479 43.4862 18.7479C40.7887 18.7479 38.8038 20.8782 38.8038 24.4336C38.8038 27.9963 40.8324 29.894 43.4716 29.894C45.522 29.894 46.3145 28.7379 46.7071 28.0254H46.8453V30.2211C46.8453 31.9443 45.6456 32.7077 43.9951 32.7077C42.1847 32.7077 41.4795 31.7989 41.0941 31.1809L39.2255 31.9516C39.8145 33.2967 41.305 34.46 43.9733 34.46ZM43.9515 28.0908C42.0102 28.0908 40.9996 26.6003 40.9996 24.4045C40.9996 22.2597 41.9884 20.5947 43.9515 20.5947C45.8492 20.5947 46.8671 22.1433 46.8671 24.4045C46.8671 26.7094 45.8274 28.0908 43.9515 28.0908Z" fill="#FBFBFB"/>
<path d="M53.1801 15.1707H51.0062V30.0612H53.1801V15.1707Z" fill="#FBFBFB"/>
<path d="M59.9967 30.2866C62.4324 30.2866 64.1556 29.0869 64.65 27.2692L62.5924 26.8984C62.1997 27.9527 61.2545 28.4907 60.0185 28.4907C58.1572 28.4907 56.9066 27.2838 56.8485 25.1316H64.7881V24.3609C64.7881 20.3256 62.3742 18.7479 59.844 18.7479C56.7321 18.7479 54.6818 21.1181 54.6818 24.5499C54.6818 28.0181 56.703 30.2866 59.9967 30.2866ZM56.8557 23.503C56.943 21.9179 58.0918 20.5438 59.8585 20.5438C61.5454 20.5438 62.6505 21.7943 62.6578 23.503H56.8557Z" fill="#FBFBFB"/>
<path d="M70.9505 30.0612H73.1972V24.8262H76.2509C79.7045 24.8262 81.4131 22.7395 81.4131 19.9912C81.4131 17.2501 79.7191 15.1707 76.2582 15.1707H70.9505V30.0612ZM73.1972 22.9213V17.0974H76.0182C78.2431 17.0974 79.1519 18.3044 79.1519 19.9912C79.1519 21.678 78.2431 22.9213 76.0473 22.9213H73.1972Z" fill="#FBFBFB"/>
<path d="M85.1251 15.1707H82.9511V30.0612H85.1251V15.1707Z" fill="#FBFBFB"/>
<path d="M90.3784 30.3084C92.2252 30.3084 93.2649 29.3705 93.6793 28.5343H93.7666V30.0612H95.8897V22.645C95.8897 19.395 93.3303 18.7479 91.5563 18.7479C89.535 18.7479 87.6737 19.5622 86.9466 21.598L88.9897 22.0633C89.3096 21.2708 90.124 20.5074 91.5854 20.5074C92.9886 20.5074 93.7084 21.2418 93.7084 22.5069V22.5578C93.7084 23.3503 92.8941 23.3357 90.8874 23.5684C88.7716 23.8156 86.6049 24.3682 86.6049 26.9057C86.6049 29.1014 88.2554 30.3084 90.3784 30.3084ZM90.851 28.5634C89.6223 28.5634 88.7352 28.0108 88.7352 26.9348C88.7352 25.7714 89.7677 25.357 91.0255 25.1898C91.7308 25.0953 93.4031 24.9062 93.7157 24.5936V26.0332C93.7157 27.3565 92.6614 28.5634 90.851 28.5634Z" fill="#FBFBFB"/>
<path d="M98.8382 34.2201C100.634 34.2201 101.776 33.2821 102.415 31.5517L107.032 18.9151L104.684 18.8933L101.856 27.56H101.739L98.9109 18.8933H96.5842L100.67 30.2066L100.401 30.9482C99.8488 32.3951 99.0708 32.526 97.8784 32.1988L97.3549 33.9801C97.6167 34.1037 98.1838 34.2201 98.8382 34.2201Z" fill="#FBFBFB"/>
</svg>
