<svg width="24" height="17" viewBox="0 0 24 17" fill="none" xmlns="http://www.w3.org/2000/svg">
<path d="M20.7614 0H3.23859C1.45281 0 0 1.54462 0 3.44326V13.5567C0 15.4554 1.45281 17 3.23859 17H20.7614C22.5472 17 24 15.4554 24 13.5567V3.44326C24 1.54462 22.5472 0 20.7614 0ZM3.23859 2.09589H20.7614C21.4602 2.09589 22.0287 2.70031 22.0287 3.44326V4.25831H1.97131V3.44326C1.97131 2.70031 2.5398 2.09589 3.23859 2.09589ZM20.7614 14.9041H3.23859C2.5398 14.9041 1.97131 14.2997 1.97131 13.5567V6.3542H22.0287V13.5567C22.0287 14.2997 21.4602 14.9041 20.7614 14.9041Z" fill="white"/>
</svg>
