<svg width="19" height="20" viewBox="0 0 19 20" fill="none" xmlns="http://www.w3.org/2000/svg">
<path d="M14.0672 19.3605C15.7152 19.3605 16.8358 18.8896 17.8528 17.7879C17.9187 17.7125 17.9846 17.6278 18.0505 17.5524C18.6061 16.9309 18.8792 16.2812 18.8792 15.6785C18.8792 14.9722 18.5025 14.3319 17.6644 13.7574L14.8582 11.7987C13.973 11.1866 12.9466 11.1396 12.1556 11.9306L11.4587 12.6274C11.2139 12.8723 10.9785 12.8911 10.696 12.6933C10.1875 12.3543 9.22695 11.5068 8.56777 10.8476C7.89917 10.179 7.22116 9.42569 6.8539 8.85126C6.65615 8.55934 6.67498 8.33333 6.91982 8.08849L7.61666 7.39165C8.40768 6.60063 8.3606 5.57419 7.73908 4.68901L5.74271 1.8357C5.18712 1.02585 4.51852 0.649179 3.81226 0.639762C3.20958 0.630345 2.56923 0.903434 1.94772 1.44961C1.87238 1.51553 1.79705 1.58145 1.72171 1.64737C0.601109 2.6738 0.12085 3.77557 0.12085 5.48944C0.12085 8.26741 1.73113 11.5445 4.86694 14.6615C7.98392 17.7596 11.2233 19.3605 14.0672 19.3605ZM14.0672 17.7879C11.6659 17.8255 8.68077 16.1211 6.06288 13.522C3.42617 10.923 1.67463 7.82482 1.7123 5.42352C1.73113 4.41592 2.08897 3.53074 2.79524 2.90922C2.87057 2.85272 2.92707 2.80564 3.00241 2.74914C3.26608 2.52313 3.54858 2.40071 3.81226 2.40071C4.08534 2.40071 4.33018 2.51372 4.51852 2.79622L6.27947 5.44236C6.50548 5.76253 6.51489 6.12979 6.1853 6.44996L5.43195 7.19389C4.71627 7.89074 4.78219 8.71 5.2342 9.35035C5.74271 10.0566 6.69381 11.1396 7.49425 11.9306C8.35118 12.7781 9.51887 13.8234 10.1969 14.313C10.8372 14.765 11.6565 14.831 12.3533 14.1153L13.0973 13.3619C13.408 13.0323 13.7753 13.0418 14.1049 13.2583L16.7039 14.991C16.9959 15.1794 17.0994 15.4148 17.0994 15.6879C17.0994 15.9516 16.977 16.2341 16.751 16.5072C16.6945 16.5731 16.6474 16.6296 16.5909 16.7049C15.9694 17.4206 15.0842 17.7784 14.0672 17.7879Z" fill="#21A038"/>
</svg>
